<?xml version="1.0" encoding="utf-8"?>
<svg viewBox="0 0 26.295 25.936" xmlns="http://www.w3.org/2000/svg" xmlns:xlink="http://www.w3.org/1999/xlink">
  <defs>
    <clipPath clipPathUnits="userSpaceOnUse" id="clipPath36">
      <path d="M 0,275.441 H 276.279 V 0 H 0 Z" id="path34"/>
    </clipPath>
    <linearGradient id="linearGradient28" spreadMethod="pad" gradientTransform="matrix(129.21133,0,0,104.44516,156.85276,538.50754)" gradientUnits="userSpaceOnUse" y2="0" x2="1" y1="0" x1="0" xlink:href="#linearGradient2262">
      <stop id="stop24-3" offset="0" style="stop-color:#e3e3e3;stop-opacity:0;"/>
      <stop id="stop26" offset="1" style="stop-color:#e3e3e3;stop-opacity:1;"/>
    </linearGradient>
    <linearGradient x1="0" y1="0" x2="1" y2="0" gradientUnits="userSpaceOnUse" gradientTransform="matrix(129.21133,0,0,129.21133,62.63752,232.12146)" spreadMethod="pad" id="linearGradient2262">
      <stop style="stop-opacity:1;stop-color:#e3e3e3" offset="0" id="stop2258"/>
      <stop style="stop-opacity:0;stop-color:#f7941e" offset="1" id="stop2260"/>
    </linearGradient>
  </defs>
  <g id="g6596" transform="matrix(0.10533707588911057, 0, 0, -0.10533707588911057, -3.54604172706604, 28.989292144775394)">
    <g id="g10" transform="translate(9.0974047,6.0649366)"/>
    <g id="g32501" transform="matrix(1.0477035,0,0,1.0477035,-1.9235908,-1.3886164)">
      <g id="g30" transform="translate(9.0974047,6.0649366)">
        <g id="g32" clip-path="url(#clipPath36)">
          <g id="g38" transform="translate(126.5786,199.0042)"/>
          <g id="g42" transform="translate(126.5786,68.6584)" style="fill:#e3e3e3;fill-opacity:1">
            <path d="m 0,0 c 4.038,0 7.322,-3.284 7.322,-7.322 0,-4.037 -3.284,-7.323 -7.322,-7.323 -4.038,0 -7.323,3.286 -7.323,7.323 C -7.323,-3.284 -4.038,0 0,0 m 119.332,98.498 c 4.037,0 7.322,-3.285 7.322,-7.323 0,-4.037 -3.285,-7.322 -7.322,-7.322 -4.038,0 -7.323,3.285 -7.323,7.322 0,4.038 3.285,7.323 7.323,7.323 M 104.464,84.122 c 2.649,-5.56 8.308,-9.422 14.868,-9.422 9.084,0 16.475,7.391 16.475,16.475 0,9.085 -7.391,16.476 -16.475,16.476 -7.017,0 -13.006,-4.417 -15.377,-10.609 H 29.226 V 49.611 h 77.385 V 30.082 H 29.226 V -32.705 H -88.8 v 149.274 h 22.772 V -13.178 h 50.647 c 2.368,-6.198 8.36,-10.62 15.381,-10.62 9.084,0 16.476,7.392 16.476,16.476 0,9.085 -7.392,16.476 -16.476,16.476 -6.559,0 -12.218,-3.862 -14.867,-9.423 h -38.252 v 129.747 h -48.59 V -45.614 H 42.135 v 62.787 h 77.386 V 62.521 H 42.135 v 21.612 z" style="fill:#e3e3e3;fill-opacity:1;fill-rule:nonzero;stroke:none" id="path44"/>
          </g>
        </g>
      </g>
    </g>
  </g>
  <g id="g14864" transform="matrix(0.15349192917346954, 0, 0, 0.15349192917346954, -7.149796485900879, -3.4755001068115234)">
    <path d="m 0,0 c 4.038,0 7.322,-3.285 7.322,-7.322 0,-4.038 -3.284,-7.323 -7.322,-7.323 -4.038,0 -7.323,3.285 -7.323,7.323 C -7.323,-3.285 -4.038,0 0,0 m -6.455,-22.479 v -58.255 h 12.91 v 58.255 c 3.901,1.669 7.033,4.8 8.701,8.702 H 119.521 V -0.868 H 15.156 C 12.64,5.018 6.794,9.153 0,9.153 c -9.084,0 -16.476,-7.391 -16.476,-16.475 0,-6.795 4.136,-12.64 10.021,-15.157" style="fill:#e3e3e3;fill-opacity:1;fill-rule:nonzero;stroke:none" id="path40" transform="matrix(0.71900871,0,0,-0.71900871,119.71059,65.014641)"/>
    <g id="g14880" style="fill:#e3e3e3;fill-opacity:1" transform="matrix(5.1656745,0,0,5.1656745,-1432.0569,-1548.2863)"/>
    <g id="g14872" style="fill:#f7941e;fill-opacity:1" transform="matrix(5.3017958,0,0,5.3017958,-1476.1171,-1591.9959)"/>
  </g>
  <g id="g22" style="stroke-width:0.99975;stroke-miterlimit:4;stroke-dasharray:none" transform="matrix(0.11036226153373718, 0, 0, -0.13653330504894257, -13.142560958862305, 76.37301635742188)">
    <path d="m 156.85268,517.64178 h 13.08 c 6.382,18.14697 27.057,31.48115 51.526,31.48115 v 0 c 24.469,0 45.143,-13.33418 51.525,-31.48115 v 0 h 13.08 c -6.679,23.85781 -33.099,41.73075 -64.605,41.73075 v 0 c -31.506,0 -57.927,-17.87294 -64.606,-41.73075" style="fill:url(#linearGradient28);fill-opacity:1;stroke:none;stroke-width:0.898434;stroke-miterlimit:4;stroke-dasharray:none" id="path30"/>
  </g>
</svg>